<mxfile host="app.diagrams.net" modified="2024-05-27T09:14:36.271Z" agent="Mozilla/5.0 (Windows NT 10.0; Win64; x64) AppleWebKit/537.36 (KHTML, like Gecko) Chrome/125.0.0.0 Safari/537.36" etag="aNCMFluwMcic_7vP-ENm" version="24.2.1" type="device">
  <diagram name="Page-1" id="2YBvvXClWsGukQMizWep">
    <mxGraphModel dx="842" dy="419" grid="1" gridSize="10" guides="1" tooltips="1" connect="1" arrows="1" fold="1" page="1" pageScale="1" pageWidth="850" pageHeight="1100" math="0" shadow="0">
      <root>
        <mxCell id="0" />
        <mxCell id="1" parent="0" />
        <mxCell id="vYgOZLr7-jjDeMl8bLXX-2" value="PlayerActor" style="swimlane;fontStyle=0;childLayout=stackLayout;horizontal=1;startSize=30;horizontalStack=0;resizeParent=1;resizeParentMax=0;resizeLast=0;collapsible=1;marginBottom=0;whiteSpace=wrap;html=1;" vertex="1" parent="1">
          <mxGeometry x="40" y="80" width="140" height="110" as="geometry" />
        </mxCell>
        <mxCell id="vYgOZLr7-jjDeMl8bLXX-5" value="&lt;div&gt;- JoinGame&lt;/div&gt;&lt;div&gt;- CreateGame&lt;/div&gt;&lt;div&gt;- LeaveGame&lt;/div&gt;- SelectCell&lt;div&gt;- UpdateCell&lt;/div&gt;&lt;div&gt;&lt;br&gt;&lt;/div&gt;&lt;div&gt;&lt;br&gt;&lt;/div&gt;&lt;div&gt;&lt;br&gt;&lt;/div&gt;&lt;div&gt;&lt;br&gt;&lt;/div&gt;&lt;div&gt;&lt;br&gt;&lt;/div&gt;" style="text;strokeColor=none;fillColor=none;align=left;verticalAlign=middle;spacingLeft=4;spacingRight=4;overflow=hidden;points=[[0,0.5],[1,0.5]];portConstraint=eastwest;rotatable=0;whiteSpace=wrap;html=1;" vertex="1" parent="vYgOZLr7-jjDeMl8bLXX-2">
          <mxGeometry y="30" width="140" height="80" as="geometry" />
        </mxCell>
        <mxCell id="vYgOZLr7-jjDeMl8bLXX-6" value="GridActor" style="swimlane;fontStyle=0;childLayout=stackLayout;horizontal=1;startSize=30;horizontalStack=0;resizeParent=1;resizeParentMax=0;resizeLast=0;collapsible=1;marginBottom=0;whiteSpace=wrap;html=1;" vertex="1" parent="1">
          <mxGeometry x="355" y="80" width="140" height="90" as="geometry" />
        </mxCell>
        <mxCell id="vYgOZLr7-jjDeMl8bLXX-7" value="&lt;div&gt;&lt;span style=&quot;background-color: initial;&quot;&gt;- CellSelected&lt;/span&gt;&lt;br&gt;&lt;/div&gt;&lt;div&gt;- CellUpdated&lt;/div&gt;&lt;div&gt;- NotifyPlayerJoined&lt;/div&gt;&lt;div&gt;- NotifyPlayerLefted&lt;/div&gt;" style="text;strokeColor=none;fillColor=none;align=left;verticalAlign=middle;spacingLeft=4;spacingRight=4;overflow=hidden;points=[[0,0.5],[1,0.5]];portConstraint=eastwest;rotatable=0;whiteSpace=wrap;html=1;" vertex="1" parent="vYgOZLr7-jjDeMl8bLXX-6">
          <mxGeometry y="30" width="140" height="60" as="geometry" />
        </mxCell>
        <mxCell id="vYgOZLr7-jjDeMl8bLXX-8" value="CoordinatorActor" style="swimlane;fontStyle=0;childLayout=stackLayout;horizontal=1;startSize=30;horizontalStack=0;resizeParent=1;resizeParentMax=0;resizeLast=0;collapsible=1;marginBottom=0;whiteSpace=wrap;html=1;" vertex="1" parent="1">
          <mxGeometry x="680" y="80" width="140" height="80" as="geometry" />
        </mxCell>
        <mxCell id="vYgOZLr7-jjDeMl8bLXX-9" value="&lt;div&gt;&lt;span style=&quot;background-color: initial;&quot;&gt;- PlayerJoined&lt;/span&gt;&lt;/div&gt;&lt;div&gt;- PlayerLefted&lt;/div&gt;" style="text;strokeColor=none;fillColor=none;align=left;verticalAlign=middle;spacingLeft=4;spacingRight=4;overflow=hidden;points=[[0,0.5],[1,0.5]];portConstraint=eastwest;rotatable=0;whiteSpace=wrap;html=1;" vertex="1" parent="vYgOZLr7-jjDeMl8bLXX-8">
          <mxGeometry y="30" width="140" height="50" as="geometry" />
        </mxCell>
        <mxCell id="vYgOZLr7-jjDeMl8bLXX-11" value="" style="endArrow=classic;startArrow=classic;html=1;rounded=0;exitX=1;exitY=0;exitDx=0;exitDy=0;entryX=0;entryY=0;entryDx=0;entryDy=0;" edge="1" parent="1" source="vYgOZLr7-jjDeMl8bLXX-2" target="vYgOZLr7-jjDeMl8bLXX-6">
          <mxGeometry width="50" height="50" relative="1" as="geometry">
            <mxPoint x="420" y="260" as="sourcePoint" />
            <mxPoint x="470" y="210" as="targetPoint" />
          </mxGeometry>
        </mxCell>
        <mxCell id="vYgOZLr7-jjDeMl8bLXX-12" value="" style="endArrow=classic;startArrow=classic;html=1;rounded=0;entryX=0;entryY=0;entryDx=0;entryDy=0;exitX=1;exitY=0;exitDx=0;exitDy=0;" edge="1" parent="1" source="vYgOZLr7-jjDeMl8bLXX-6" target="vYgOZLr7-jjDeMl8bLXX-8">
          <mxGeometry width="50" height="50" relative="1" as="geometry">
            <mxPoint x="500" y="90" as="sourcePoint" />
            <mxPoint x="680" y="100" as="targetPoint" />
          </mxGeometry>
        </mxCell>
        <mxCell id="vYgOZLr7-jjDeMl8bLXX-14" value="" style="endArrow=none;dashed=1;html=1;rounded=0;exitX=0.467;exitY=1;exitDx=0;exitDy=0;exitPerimeter=0;" edge="1" parent="1" source="vYgOZLr7-jjDeMl8bLXX-5">
          <mxGeometry width="50" height="50" relative="1" as="geometry">
            <mxPoint x="430" y="290" as="sourcePoint" />
            <mxPoint x="110" y="720" as="targetPoint" />
          </mxGeometry>
        </mxCell>
        <mxCell id="vYgOZLr7-jjDeMl8bLXX-15" value="" style="endArrow=none;dashed=1;html=1;rounded=0;exitX=0.494;exitY=1.06;exitDx=0;exitDy=0;exitPerimeter=0;" edge="1" parent="1" source="vYgOZLr7-jjDeMl8bLXX-7">
          <mxGeometry width="50" height="50" relative="1" as="geometry">
            <mxPoint x="425" y="190" as="sourcePoint" />
            <mxPoint x="430" y="720" as="targetPoint" />
          </mxGeometry>
        </mxCell>
        <mxCell id="vYgOZLr7-jjDeMl8bLXX-16" value="" style="endArrow=none;dashed=1;html=1;rounded=0;exitX=0.467;exitY=1;exitDx=0;exitDy=0;exitPerimeter=0;" edge="1" parent="1">
          <mxGeometry width="50" height="50" relative="1" as="geometry">
            <mxPoint x="747.5" y="160" as="sourcePoint" />
            <mxPoint x="753" y="720" as="targetPoint" />
          </mxGeometry>
        </mxCell>
        <mxCell id="vYgOZLr7-jjDeMl8bLXX-17" value="" style="endArrow=classic;html=1;rounded=0;" edge="1" parent="1">
          <mxGeometry relative="1" as="geometry">
            <mxPoint x="110" y="240" as="sourcePoint" />
            <mxPoint x="750" y="240" as="targetPoint" />
          </mxGeometry>
        </mxCell>
        <mxCell id="vYgOZLr7-jjDeMl8bLXX-18" value="CreateGame" style="edgeLabel;resizable=0;html=1;;align=center;verticalAlign=middle;" connectable="0" vertex="1" parent="vYgOZLr7-jjDeMl8bLXX-17">
          <mxGeometry relative="1" as="geometry">
            <mxPoint x="-230" as="offset" />
          </mxGeometry>
        </mxCell>
        <mxCell id="vYgOZLr7-jjDeMl8bLXX-20" value="" style="endArrow=classic;html=1;rounded=0;" edge="1" parent="1">
          <mxGeometry relative="1" as="geometry">
            <mxPoint x="110" y="320" as="sourcePoint" />
            <mxPoint x="750" y="320" as="targetPoint" />
          </mxGeometry>
        </mxCell>
        <mxCell id="vYgOZLr7-jjDeMl8bLXX-21" value="JoinGame" style="edgeLabel;resizable=0;html=1;;align=center;verticalAlign=middle;" connectable="0" vertex="1" parent="vYgOZLr7-jjDeMl8bLXX-20">
          <mxGeometry relative="1" as="geometry">
            <mxPoint x="-230" as="offset" />
          </mxGeometry>
        </mxCell>
        <mxCell id="vYgOZLr7-jjDeMl8bLXX-22" value="" style="endArrow=classic;html=1;rounded=0;" edge="1" parent="1">
          <mxGeometry relative="1" as="geometry">
            <mxPoint x="110" y="540" as="sourcePoint" />
            <mxPoint x="750" y="540" as="targetPoint" />
          </mxGeometry>
        </mxCell>
        <mxCell id="vYgOZLr7-jjDeMl8bLXX-23" value="LeaveGame" style="edgeLabel;resizable=0;html=1;;align=center;verticalAlign=middle;" connectable="0" vertex="1" parent="vYgOZLr7-jjDeMl8bLXX-22">
          <mxGeometry relative="1" as="geometry">
            <mxPoint x="-230" as="offset" />
          </mxGeometry>
        </mxCell>
        <mxCell id="vYgOZLr7-jjDeMl8bLXX-24" value="" style="endArrow=classic;html=1;rounded=0;" edge="1" parent="1">
          <mxGeometry relative="1" as="geometry">
            <mxPoint x="110" y="400" as="sourcePoint" />
            <mxPoint x="430" y="400" as="targetPoint" />
          </mxGeometry>
        </mxCell>
        <mxCell id="vYgOZLr7-jjDeMl8bLXX-25" value="SelectCell" style="edgeLabel;resizable=0;html=1;;align=center;verticalAlign=middle;" connectable="0" vertex="1" parent="vYgOZLr7-jjDeMl8bLXX-24">
          <mxGeometry relative="1" as="geometry">
            <mxPoint x="-70" as="offset" />
          </mxGeometry>
        </mxCell>
        <mxCell id="vYgOZLr7-jjDeMl8bLXX-26" value="" style="endArrow=classic;html=1;rounded=0;" edge="1" parent="1">
          <mxGeometry relative="1" as="geometry">
            <mxPoint x="110" y="470" as="sourcePoint" />
            <mxPoint x="430" y="470" as="targetPoint" />
          </mxGeometry>
        </mxCell>
        <mxCell id="vYgOZLr7-jjDeMl8bLXX-27" value="UpdateCell" style="edgeLabel;resizable=0;html=1;;align=center;verticalAlign=middle;" connectable="0" vertex="1" parent="vYgOZLr7-jjDeMl8bLXX-26">
          <mxGeometry relative="1" as="geometry">
            <mxPoint x="-70" as="offset" />
          </mxGeometry>
        </mxCell>
        <mxCell id="vYgOZLr7-jjDeMl8bLXX-28" value="" style="endArrow=classic;html=1;rounded=0;" edge="1" parent="1">
          <mxGeometry relative="1" as="geometry">
            <mxPoint x="745" y="340" as="sourcePoint" />
            <mxPoint x="425" y="340" as="targetPoint" />
          </mxGeometry>
        </mxCell>
        <mxCell id="vYgOZLr7-jjDeMl8bLXX-29" value="PlayerJoined" style="edgeLabel;resizable=0;html=1;;align=center;verticalAlign=middle;" connectable="0" vertex="1" parent="vYgOZLr7-jjDeMl8bLXX-28">
          <mxGeometry relative="1" as="geometry" />
        </mxCell>
        <mxCell id="vYgOZLr7-jjDeMl8bLXX-34" value="" style="endArrow=classic;html=1;rounded=0;" edge="1" parent="1">
          <mxGeometry relative="1" as="geometry">
            <mxPoint x="425" y="360" as="sourcePoint" />
            <mxPoint x="105" y="360" as="targetPoint" />
          </mxGeometry>
        </mxCell>
        <mxCell id="vYgOZLr7-jjDeMl8bLXX-35" value="NotifyPlayerJoined" style="edgeLabel;resizable=0;html=1;;align=center;verticalAlign=middle;" connectable="0" vertex="1" parent="vYgOZLr7-jjDeMl8bLXX-34">
          <mxGeometry relative="1" as="geometry" />
        </mxCell>
        <mxCell id="vYgOZLr7-jjDeMl8bLXX-36" value="&lt;font style=&quot;font-size: 9px;&quot;&gt;manda a tutti i player&lt;/font&gt;" style="text;html=1;align=center;verticalAlign=middle;resizable=0;points=[];autosize=1;strokeColor=none;fillColor=none;" vertex="1" parent="1">
          <mxGeometry x="320" y="340" width="110" height="30" as="geometry" />
        </mxCell>
        <mxCell id="vYgOZLr7-jjDeMl8bLXX-37" value="" style="endArrow=classic;html=1;rounded=0;" edge="1" parent="1">
          <mxGeometry relative="1" as="geometry">
            <mxPoint x="425" y="430" as="sourcePoint" />
            <mxPoint x="105" y="430" as="targetPoint" />
          </mxGeometry>
        </mxCell>
        <mxCell id="vYgOZLr7-jjDeMl8bLXX-38" value="CellSelected" style="edgeLabel;resizable=0;html=1;;align=center;verticalAlign=middle;" connectable="0" vertex="1" parent="vYgOZLr7-jjDeMl8bLXX-37">
          <mxGeometry relative="1" as="geometry" />
        </mxCell>
        <mxCell id="vYgOZLr7-jjDeMl8bLXX-39" value="&lt;font style=&quot;font-size: 9px;&quot;&gt;manda a tutti i player&lt;/font&gt;" style="text;html=1;align=center;verticalAlign=middle;resizable=0;points=[];autosize=1;strokeColor=none;fillColor=none;" vertex="1" parent="1">
          <mxGeometry x="320" y="410" width="110" height="30" as="geometry" />
        </mxCell>
        <mxCell id="vYgOZLr7-jjDeMl8bLXX-41" value="" style="endArrow=classic;html=1;rounded=0;" edge="1" parent="1">
          <mxGeometry relative="1" as="geometry">
            <mxPoint x="430" y="500" as="sourcePoint" />
            <mxPoint x="110" y="500" as="targetPoint" />
          </mxGeometry>
        </mxCell>
        <mxCell id="vYgOZLr7-jjDeMl8bLXX-42" value="CellUpdated" style="edgeLabel;resizable=0;html=1;;align=center;verticalAlign=middle;" connectable="0" vertex="1" parent="vYgOZLr7-jjDeMl8bLXX-41">
          <mxGeometry relative="1" as="geometry" />
        </mxCell>
        <mxCell id="vYgOZLr7-jjDeMl8bLXX-43" value="&lt;font style=&quot;font-size: 9px;&quot;&gt;manda a tutti i player&lt;/font&gt;" style="text;html=1;align=center;verticalAlign=middle;resizable=0;points=[];autosize=1;strokeColor=none;fillColor=none;" vertex="1" parent="1">
          <mxGeometry x="325" y="480" width="110" height="30" as="geometry" />
        </mxCell>
        <mxCell id="vYgOZLr7-jjDeMl8bLXX-45" value="" style="endArrow=classic;html=1;rounded=0;" edge="1" parent="1">
          <mxGeometry relative="1" as="geometry">
            <mxPoint x="750" y="560" as="sourcePoint" />
            <mxPoint x="430" y="560" as="targetPoint" />
          </mxGeometry>
        </mxCell>
        <mxCell id="vYgOZLr7-jjDeMl8bLXX-46" value="PlayerLefted" style="edgeLabel;resizable=0;html=1;;align=center;verticalAlign=middle;" connectable="0" vertex="1" parent="vYgOZLr7-jjDeMl8bLXX-45">
          <mxGeometry relative="1" as="geometry" />
        </mxCell>
        <mxCell id="vYgOZLr7-jjDeMl8bLXX-47" value="" style="endArrow=classic;html=1;rounded=0;" edge="1" parent="1">
          <mxGeometry relative="1" as="geometry">
            <mxPoint x="430" y="580" as="sourcePoint" />
            <mxPoint x="110" y="580" as="targetPoint" />
          </mxGeometry>
        </mxCell>
        <mxCell id="vYgOZLr7-jjDeMl8bLXX-48" value="NotifyPlayerLefted" style="edgeLabel;resizable=0;html=1;;align=center;verticalAlign=middle;" connectable="0" vertex="1" parent="vYgOZLr7-jjDeMl8bLXX-47">
          <mxGeometry relative="1" as="geometry" />
        </mxCell>
        <mxCell id="vYgOZLr7-jjDeMl8bLXX-49" value="&lt;font style=&quot;font-size: 9px;&quot;&gt;manda a tutti i player&lt;/font&gt;" style="text;html=1;align=center;verticalAlign=middle;resizable=0;points=[];autosize=1;strokeColor=none;fillColor=none;" vertex="1" parent="1">
          <mxGeometry x="325" y="560" width="110" height="30" as="geometry" />
        </mxCell>
        <mxCell id="vYgOZLr7-jjDeMl8bLXX-50" value="Creo GridActor associato alla partita" style="rounded=1;whiteSpace=wrap;html=1;" vertex="1" parent="1">
          <mxGeometry x="490" y="250" width="190" height="40" as="geometry" />
        </mxCell>
      </root>
    </mxGraphModel>
  </diagram>
</mxfile>
